<?xml version="1.0" standalone="no"?>
<!DOCTYPE svg PUBLIC "-//W3C//DTD SVG 20010904//EN"
 "http://www.w3.org/TR/2001/REC-SVG-20010904/DTD/svg10.dtd">
<svg version="1.0" xmlns="http://www.w3.org/2000/svg"
 width="680.000000pt" height="363.000000pt" viewBox="0 0 680.000000 363.000000"
 preserveAspectRatio="xMidYMid meet">

<g transform="translate(0.000000,363.000000) scale(0.100000,-0.100000)"
fill="#000000" stroke="none">
<path d="M4535 2466 c-93 -29 -163 -91 -190 -166 -35 -97 -14 -223 48 -288 36
-39 119 -80 223 -113 138 -42 168 -56 187 -89 52 -88 -37 -179 -145 -149 -45
12 -94 66 -108 120 l-12 42 -121 -7 c-67 -4 -123 -9 -124 -10 -8 -7 21 -125
39 -159 31 -61 93 -122 151 -148 47 -22 66 -24 202 -24 146 0 151 1 208 30
146 73 214 236 168 397 -30 105 -116 165 -317 224 -71 20 -139 46 -151 57 -29
26 -29 59 0 93 20 23 32 27 71 27 58 0 94 -24 121 -82 l20 -42 115 7 c63 3
119 8 123 11 12 7 -1 59 -30 125 -49 111 -149 158 -331 157 -59 0 -125 -6
-147 -13z"/>
<path d="M1650 1970 l0 -500 110 0 110 0 1 373 c0 229 4 363 9 350 5 -12 20
-75 34 -140 14 -65 42 -188 61 -273 20 -85 44 -190 52 -232 l16 -78 102 0 102
0 12 58 c24 111 73 328 101 447 15 66 31 140 35 165 19 117 24 50 25 -297 l0
-373 110 0 110 0 0 500 0 500 -179 0 -180 0 -11 -57 c-6 -32 -24 -114 -39
-183 -16 -69 -41 -178 -56 -242 -14 -65 -28 -118 -30 -118 -2 0 -11 35 -20 78
-16 75 -51 230 -96 425 l-23 97 -178 0 -178 0 0 -500z"/>
<path d="M2670 1970 l0 -500 145 0 145 0 0 205 0 205 180 0 180 0 0 100 0 100
-180 0 -180 0 0 90 0 90 211 2 211 3 2 75 c2 41 1 87 -2 103 l-4 27 -354 0
-354 0 0 -500z"/>
<path d="M2315 1379 c-4 -5 -1 -9 4 -9 6 0 11 -20 11 -45 0 -25 5 -45 10 -45
6 0 10 20 10 45 0 28 5 45 12 45 17 0 4 10 -20 15 -12 2 -24 0 -27 -6z"/>
<path d="M2511 1332 c1 -38 3 -49 8 -33 3 13 15 28 26 32 19 7 19 8 -2 8 -30
1 -31 31 -1 31 25 0 16 13 -12 17 -18 3 -20 -3 -19 -55z"/>
<path d="M2748 1382 c-14 -3 -18 -14 -18 -53 l0 -49 38 1 c35 1 36 2 8 8 -17
3 -29 9 -28 14 1 4 2 12 2 17 0 6 12 11 28 11 l27 1 -29 7 c-39 8 -39 24 -1
32 17 4 28 8 25 9 -13 5 -37 6 -52 2z"/>
<path d="M2865 1382 c-3 -3 -5 -27 -5 -54 0 -48 0 -48 33 -47 30 2 30 2 5 6
-19 3 -28 10 -28 23 0 13 9 20 28 23 l27 4 -27 2 c-17 0 -28 7 -28 15 0 9 12
16 28 18 l27 3 -27 6 c-15 3 -30 4 -33 1z"/>
<path d="M2979 1379 c-12 -7 -11 -9 3 -9 13 0 18 -11 21 -47 l3 -48 2 48 c1
26 7 47 12 47 6 0 10 4 10 8 0 11 -34 12 -51 1z"/>
<path d="M3299 1382 c-24 -3 -26 -7 -28 -53 l-1 -49 37 1 c30 2 33 3 11 6 -19
3 -28 10 -28 23 0 13 9 20 28 23 l27 4 -27 2 c-17 0 -28 7 -28 15 0 9 12 16
28 18 15 2 23 5 17 8 -5 3 -22 4 -36 2z"/>
<path d="M3433 1380 c-50 -20 -49 -93 1 -106 23 -5 73 12 63 23 -3 2 -14 0
-25 -6 -14 -7 -24 -6 -40 5 -45 31 -16 81 41 70 30 -5 31 -5 13 9 -22 17 -23
17 -53 5z"/>
<path d="M3793 1383 c-20 -7 -15 -41 7 -55 11 -7 20 -19 20 -27 0 -8 -7 -11
-20 -8 -24 6 -27 -8 -3 -17 9 -4 23 0 32 8 13 14 13 19 -7 45 -26 35 -28 45
-7 37 8 -3 15 -1 15 3 0 11 -22 19 -37 14z"/>
<path d="M3912 1382 c-7 -2 -12 -23 -12 -53 l0 -49 38 1 c30 2 32 3 10 6 -19
3 -28 10 -28 23 0 13 9 20 28 23 l27 4 -27 2 c-37 2 -38 31 -1 31 14 0 23 3
19 7 -8 8 -37 11 -54 5z"/>
<path d="M4402 1374 c-50 -34 -13 -112 47 -99 17 4 31 11 31 16 0 12 -7 11
-30 -1 -13 -7 -24 -5 -41 9 -21 16 -22 22 -11 45 13 28 49 35 70 14 9 -9 12
-9 12 0 0 7 -12 17 -26 22 -31 12 -25 13 -52 -6z"/>
<path d="M4563 1382 c-19 -3 -22 -9 -21 -53 l0 -49 36 1 c31 2 32 3 10 6 -19
3 -28 10 -28 23 0 13 9 20 28 23 l27 4 -27 2 c-17 0 -28 7 -28 15 0 9 12 16
28 18 17 2 21 5 12 8 -8 3 -25 4 -37 2z"/>
<path d="M4683 1383 c-19 -7 -15 -38 7 -58 27 -25 25 -38 -5 -33 -27 6 -34 -6
-10 -16 42 -16 60 27 25 59 -11 10 -20 22 -20 27 0 5 9 6 20 3 11 -3 20 -2 20
3 0 12 -21 20 -37 15z"/>
<path d="M2000 1362 c0 -11 -3 -35 -6 -53 -7 -37 10 -31 18 6 4 18 6 17 18 -7
17 -36 23 -35 43 5 l16 32 0 -32 c1 -18 6 -33 11 -33 11 0 11 29 1 75 l-7 30
-19 -37 c-10 -21 -22 -38 -26 -38 -3 0 -12 14 -19 30 -15 37 -30 48 -30 22z"/>
<path d="M2192 1334 c-24 -48 -24 -66 -2 -39 16 19 49 19 56 0 4 -8 10 -15 14
-15 5 0 -1 23 -13 50 -11 28 -24 50 -27 50 -3 0 -16 -21 -28 -46z m38 2 c0 -3
-4 -8 -10 -11 -5 -3 -10 -1 -10 4 0 6 5 11 10 11 6 0 10 -2 10 -4z"/>
<path d="M2620 1332 l0 -52 33 1 c29 1 30 2 7 8 -19 5 -25 14 -28 46 -6 58
-12 56 -12 -3z"/>
<path d="M3168 1373 c7 -3 12 -23 12 -49 0 -24 5 -44 10 -44 6 0 10 20 10 44
0 26 5 46 13 49 6 3 -4 5 -23 5 -19 0 -29 -2 -22 -5z"/>
<path d="M3560 1330 c0 -27 5 -50 10 -50 6 0 10 12 10 26 0 20 4 25 22 22 14
-2 25 -13 29 -28 5 -17 7 -8 7 30 1 42 -1 50 -8 33 -12 -29 -50 -31 -50 -3 0
11 -4 20 -10 20 -5 0 -10 -22 -10 -50z"/>
<path d="M4029 1375 c-4 -25 -1 -87 4 -92 4 -3 7 1 7 10 0 21 19 22 26 2 4 -8
10 -15 15 -15 6 0 5 9 -1 21 -9 16 -8 23 5 33 24 18 9 46 -26 46 -16 0 -29 -2
-30 -5z m49 -22 c2 -8 -5 -13 -17 -13 -12 0 -21 6 -21 16 0 18 31 15 38 -3z"/>
<path d="M4150 1376 c0 -9 41 -96 46 -96 7 0 45 92 40 97 -3 3 -13 -12 -24
-33 l-19 -38 -14 37 c-7 20 -17 37 -21 37 -4 0 -8 -2 -8 -4z"/>
<path d="M4300 1330 c0 -27 5 -50 10 -50 6 0 10 23 10 50 0 28 -4 50 -10 50
-5 0 -10 -22 -10 -50z"/>
</g>
</svg>
